<?xml version="1.0" standalone="no"?>
<!DOCTYPE svg PUBLIC "-//W3C//DTD SVG 20010904//EN"
 "http://www.w3.org/TR/2001/REC-SVG-20010904/DTD/svg10.dtd">
<svg version="1.0" xmlns="http://www.w3.org/2000/svg"
 width="700.000000pt" height="700.000000pt" viewBox="0 0 700.000000 700.000000"
 preserveAspectRatio="xMidYMid meet">
<metadata>
Created by potrace 1.14, written by Peter Selinger 2001-2017
</metadata>
<g transform="translate(0.000000,700.000000) scale(0.100000,-0.100000)"
fill="#000000" stroke="none">
<path d="M1060 6980 c-383 -73 -689 -288 -891 -628 -27 -45 -49 -88 -49 -95 0
-7 -4 -17 -9 -23 -19 -21 -63 -163 -97 -314 -5 -19 -9 -1099 -11 -2400 -2
-2276 -1 -2369 17 -2460 59 -302 192 -537 413 -735 135 -121 271 -199 449
-259 204 -68 46 -64 2648 -62 1295 1 2369 5 2385 9 62 15 81 19 109 24 47 8
196 63 268 99 72 36 207 125 259 171 172 151 316 365 381 568 33 101 37 119
57 240 6 38 10 913 10 2385 0 2355 0 2365 -33 2505 -2 11 -7 34 -11 50 -4 17
-10 39 -15 50 -4 11 -19 52 -34 90 -124 332 -434 624 -783 739 -202 65 20 60
-2598 62 -2248 2 -2375 1 -2465 -16z"/>
</g>
</svg>
