<?xml version="1.0" standalone="no"?>
<!DOCTYPE svg PUBLIC "-//W3C//DTD SVG 20010904//EN"
 "http://www.w3.org/TR/2001/REC-SVG-20010904/DTD/svg10.dtd">
<svg version="1.0" xmlns="http://www.w3.org/2000/svg"
 width="700.000000pt" height="700.000000pt" viewBox="0 0 700.000000 700.000000"
 preserveAspectRatio="xMidYMid meet">
<metadata>
Created by potrace 1.14, written by Peter Selinger 2001-2017
</metadata>
<g transform="translate(0.000000,700.000000) scale(0.100000,-0.100000)"
fill="#000000" stroke="none">
<path d="M1720 3500 l0 -1640 335 0 335 0 0 1070 c0 1013 1 1070 18 1070 13
-1 106 -223 438 -1058 l422 -1057 232 0 233 0 421 1052 c333 832 425 1053 439
1053 16 0 17 -57 17 -1065 l0 -1065 335 0 335 0 0 1640 0 1640 -429 0 -428 0
-102 -247 c-833 -2033 -797 -1948 -821 -1948 -21 0 -53 73 -371 850 -192 468
-394 961 -450 1098 l-102 247 -428 0 -429 0 0 -1640z"/>
</g>
</svg>
